<svg width="20" height="20" viewBox="0 0 20 20" fill="none" xmlns="http://www.w3.org/2000/svg">
<path d="M9.99999 1.66667C5.39999 1.66667 1.66666 5.40001 1.66666 10C1.66666 14.6 5.39999 18.3333 9.99999 18.3333C14.6 18.3333 18.3333 14.6 18.3333 10C18.3333 5.40001 14.6 1.66667 9.99999 1.66667ZM5.89166 15.2333C6.24999 14.4833 8.43332 13.75 9.99999 13.75C11.5667 13.75 13.7583 14.4833 14.1083 15.2333C12.975 16.1333 11.55 16.6667 9.99999 16.6667C8.44999 16.6667 7.02499 16.1333 5.89166 15.2333ZM15.3 14.025C14.1083 12.575 11.2167 12.0833 9.99999 12.0833C8.78332 12.0833 5.89166 12.575 4.69999 14.025C3.84999 12.9083 3.33332 11.5167 3.33332 10C3.33332 6.32501 6.32499 3.33334 9.99999 3.33334C13.675 3.33334 16.6667 6.32501 16.6667 10C16.6667 11.5167 16.15 12.9083 15.3 14.025Z" fill="#5F6368"/>
<path d="M10 5C8.38334 5 7.08334 6.3 7.08334 7.91667C7.08334 9.53333 8.38334 10.8333 10 10.8333C11.6167 10.8333 12.9167 9.53333 12.9167 7.91667C12.9167 6.3 11.6167 5 10 5ZM10 9.16667C9.30834 9.16667 8.75001 8.60833 8.75001 7.91667C8.75001 7.225 9.30834 6.66667 10 6.66667C10.6917 6.66667 11.25 7.225 11.25 7.91667C11.25 8.60833 10.6917 9.16667 10 9.16667Z" fill="#5F6368"/>
</svg>
