<svg width="14" height="14" viewBox="0 0 14 14" fill="none" xmlns="http://www.w3.org/2000/svg">
<g clip-path="url(#clip0_2_189)">
<path d="M13.16 7.14584C13.16 6.69084 13.1192 6.25334 13.0433 5.83334H7V8.31543H10.4533C10.3046 9.11751 9.8525 9.79709 9.17292 10.2521V11.8621H11.2467C12.46 10.745 13.16 9.10001 13.16 7.14584Z" fill="#4285F4"/>
<path d="M7.00001 13.4167C8.7325 13.4167 10.185 12.8421 11.2467 11.8621L9.17292 10.2521C8.59834 10.6371 7.86334 10.8646 7.00001 10.8646C5.32875 10.8646 3.91417 9.73584 3.40959 8.21918H1.26584V9.88168C2.32167 11.9788 4.49167 13.4167 7.00001 13.4167Z" fill="#34A853"/>
<path d="M3.40956 8.21917C3.28123 7.83417 3.20831 7.42292 3.20831 7C3.20831 6.57708 3.28123 6.16583 3.40956 5.78083V4.11833H1.26581C0.83123 4.98458 0.583313 5.96458 0.583313 7C0.583313 8.03542 0.83123 9.01542 1.26581 9.88167L3.40956 8.21917Z" fill="#FBBC05"/>
<path d="M7.00001 3.13543C7.94209 3.13543 8.78792 3.45918 9.45292 4.09501L11.2933 2.25459C10.1821 1.21918 8.72959 0.583344 7.00001 0.583344C4.49167 0.583344 2.32167 2.02126 1.26584 4.11834L3.40959 5.78084C3.91417 4.26418 5.32875 3.13543 7.00001 3.13543Z" fill="#EA4335"/>
</g>
<defs>
<clipPath id="clip0_2_189">
<rect width="14" height="14" fill="white"/>
</clipPath>
</defs>
</svg>
