<svg width="24" height="24" viewBox="0 0 24 24" fill="none" xmlns="http://www.w3.org/2000/svg">
<path fill-rule="evenodd" clip-rule="evenodd" d="M12.5 3C7.52944 3 3.5 7.02944 3.5 12C3.5 16.9706 7.52944 21 12.5 21C14.7696 21 16.843 20.1605 18.4269 18.7731C14.1772 17.8273 11 14.0347 11 9.5C11 7.01304 11.9562 4.74952 13.5189 3.05695C13.1847 3.01933 12.8447 3 12.5 3ZM1.5 12C1.5 5.92487 6.42487 1 12.5 1C13.7138 1 14.8836 1.19697 15.978 1.56146C16.3373 1.68111 16.5981 1.99344 16.6519 2.36829C16.7056 2.74313 16.543 3.11618 16.2319 3.33197C14.2769 4.68769 13 6.94482 13 9.5C13 13.6421 16.3579 17 20.5 17C20.8789 17 21.226 17.2141 21.3953 17.5531C21.5646 17.8921 21.5279 18.2976 21.3003 18.6006C19.2951 21.2701 16.0994 23 12.5 23C6.42487 23 1.5 18.0751 1.5 12Z" fill="black"/>
</svg>
