<svg width="24" height="24" viewBox="0 0 24 24" fill="none" xmlns="http://www.w3.org/2000/svg">
<path fill-rule="evenodd" clip-rule="evenodd" d="M3 13.5C3 11.8431 4.34315 10.5 6 10.5H6.5C8.15685 10.5 9.5 11.8431 9.5 13.5V18C9.5 19.6569 8.15685 21 6.5 21H6C4.34315 21 3 19.6569 3 18V13.5ZM6 12.5C5.44772 12.5 5 12.9477 5 13.5V18C5 18.5523 5.44772 19 6 19H6.5C7.05228 19 7.5 18.5523 7.5 18V13.5C7.5 12.9477 7.05228 12.5 6.5 12.5H6Z" fill="black"/>
<path fill-rule="evenodd" clip-rule="evenodd" d="M14.5 13.5C14.5 11.8431 15.8431 10.5 17.5 10.5H18C19.6569 10.5 21 11.8431 21 13.5L21 18C21 19.6569 19.6569 21 18 21H17.5C15.8431 21 14.5 19.6569 14.5 18L14.5 13.5ZM17.5 12.5C16.9477 12.5 16.5 12.9477 16.5 13.5L16.5 18C16.5 18.5523 16.9477 19 17.5 19H18C18.5523 19 19 18.5523 19 18L19 13.5C19 12.9477 18.5523 12.5 18 12.5H17.5Z" fill="black"/>
<path fill-rule="evenodd" clip-rule="evenodd" d="M11 5C7.68629 5 5 7.68629 5 11V15.5H3V11C3 6.58172 6.58173 3 11 3L13 3C17.4183 3 21 6.58173 21 11V15.5H19V11C19 7.68629 16.3137 5 13 5L11 5Z" fill="black"/>
</svg>
